<svg width="14" height="17" viewBox="0 0 14 17" fill="none" xmlns="http://www.w3.org/2000/svg">
<path d="M13.126 12.83C12.78 13.5961 12.615 13.9381 12.169 14.6151C11.548 15.5601 10.673 16.7381 9.58797 16.748C8.62397 16.757 8.37597 16.1211 7.06797 16.1281C5.75997 16.1351 5.48597 16.7591 4.52197 16.7501C3.43697 16.7401 2.60797 15.6771 1.98597 14.7311C0.249967 12.0871 0.0679672 8.98505 1.13897 7.33605C1.89997 6.16305 3.10097 5.47805 4.23097 5.47805C5.38097 5.47805 6.10297 6.10805 7.05397 6.10805C7.97597 6.10805 8.53797 5.47705 9.86797 5.47705C10.873 5.47705 11.938 6.02405 12.696 6.96905C10.211 8.33205 10.615 11.8811 13.126 12.83Z" fill="#FDCC0C"/>
<path d="M1.2743 12.83C1.6203 13.5961 1.7853 13.9381 2.2313 14.6151C2.8523 15.5601 3.7273 16.7381 4.8123 16.748C5.7763 16.757 6.0243 16.1211 7.3323 16.1281C8.6403 16.1351 8.9143 16.7591 9.8783 16.7501C10.9633 16.7401 11.7923 15.6771 12.4143 14.7311C14.1503 12.0871 14.3323 8.98505 13.2613 7.33605C12.5003 6.16305 11.2993 5.47805 10.1693 5.47805C9.0193 5.47805 8.2973 6.10805 7.3463 6.10805C6.4243 6.10805 5.8623 5.47705 4.5323 5.47705C3.5273 5.47705 2.4623 6.02405 1.7043 6.96905C4.1893 8.33205 3.7853 11.8811 1.2743 12.83Z" fill="#FDCC0C"/>
<path d="M9.40401 3.449C9.95001 2.749 10.364 1.76 10.213 0.75C9.32201 0.811 8.28001 1.378 7.67101 2.117C7.11901 2.788 6.66301 3.783 6.84001 4.75C7.81301 4.78 8.81901 4.199 9.40401 3.449Z" fill="#FDCC0C"/>
</svg>
