<svg width="16" height="16" viewBox="0 0 16 16" fill="none" xmlns="http://www.w3.org/2000/svg">
<path d="M14.8883 2.82641C14.6059 2.54406 14.2295 2.35583 13.9471 2.35583C13.853 1.97936 13.7589 1.697 13.4765 1.41465C12.8177 0.755826 11.6883 0.755826 11.0295 1.41465C10.4648 1.97936 10.3706 2.92053 10.8412 3.57936L8.77064 5.55583L7.73534 4.52053L5.66475 6.59112C5.47652 6.497 5.19417 6.497 5.00593 6.497C2.37064 6.497 0.300049 8.56759 0.300049 11.2029C0.300049 13.8382 2.37064 15.9088 5.00593 15.9088C7.64123 15.9088 9.71181 13.8382 9.71181 11.2029C9.71181 11.0147 9.71181 10.7323 9.6177 10.5441L11.6883 8.47347L10.653 7.43818L12.6295 5.46171C13.2883 5.9323 14.2295 5.83818 14.7942 5.27347C15.5471 4.61465 15.5471 3.48524 14.8883 2.82641Z" fill="#4AB8FF"/>
</svg>
