<svg width="18" height="16" viewBox="0 0 18 16" fill="none" xmlns="http://www.w3.org/2000/svg">
<path d="M11.625 3.12195C12.45 3.12195 13.125 2.41951 13.125 1.56098C13.125 0.702439 12.45 0 11.625 0C10.8 0 10.125 0.702439 10.125 1.56098C10.125 2.41951 10.8 3.12195 11.625 3.12195ZM3.75 8.19512C1.65 8.19512 0 9.9122 0 12.0976C0 14.2829 1.65 16 3.75 16C5.85 16 7.5 14.2829 7.5 12.0976C7.5 9.9122 5.85 8.19512 3.75 8.19512ZM3.75 14.8293C2.325 14.8293 1.125 13.5805 1.125 12.0976C1.125 10.6146 2.325 9.36585 3.75 9.36585C5.175 9.36585 6.375 10.6146 6.375 12.0976C6.375 13.5805 5.175 14.8293 3.75 14.8293ZM8.1 7.02439L9.9 5.15122L10.5 5.77561C11.475 6.79024 12.75 7.41463 14.325 7.41463V5.85366C13.2 5.85366 12.3 5.38537 11.625 4.68293L10.2 3.2C9.825 2.8878 9.45 2.73171 9 2.73171C8.55 2.73171 8.175 2.8878 7.95 3.2L5.85 5.38537C5.55 5.69756 5.4 6.0878 5.4 6.47805C5.4 6.94634 5.55 7.33659 5.85 7.57073L8.25 9.7561V13.6585H9.75V8.81951L8.1 7.02439ZM14.25 8.19512C12.15 8.19512 10.5 9.9122 10.5 12.0976C10.5 14.2829 12.15 16 14.25 16C16.35 16 18 14.2829 18 12.0976C18 9.9122 16.35 8.19512 14.25 8.19512ZM14.25 14.8293C12.825 14.8293 11.625 13.5805 11.625 12.0976C11.625 10.6146 12.825 9.36585 14.25 9.36585C15.675 9.36585 16.875 10.6146 16.875 12.0976C16.875 13.5805 15.675 14.8293 14.25 14.8293Z" fill="#8B8D98"/>
</svg>
