<svg width="14" height="17" viewBox="0 0 14 17" fill="none" xmlns="http://www.w3.org/2000/svg">
<path d="M8.52404 6.34305C8.52404 6.34305 9.27004 1.95505 6.22604 0.0500488C6.13432 1.57491 5.3975 2.98853 4.20004 3.93705C2.90004 5.08005 0.455041 7.65005 0.481041 10.39C0.461988 12.7793 1.79936 14.9727 3.93204 16.05C4.0075 14.9817 4.50994 13.9887 5.32604 13.295C6.01755 12.7632 6.46648 11.976 6.57204 11.11C8.39258 12.0779 9.57002 13.9318 9.67204 15.991V16.004C11.6842 15.0824 13.0088 13.1094 13.1 10.898C13.316 8.32405 11.906 4.82405 10.655 3.68005C10.1827 4.7345 9.44928 5.65105 8.52404 6.34305Z" fill="#FF0000"/>
</svg>
