<svg width="17" height="16" viewBox="0 0 17 16" fill="none" xmlns="http://www.w3.org/2000/svg">
<path d="M1.5 12.55C1.5 14.25 2.8 15.55 4.5 15.55H12.5C14.2 15.55 15.5 14.25 15.5 12.55H1.5Z" fill="#FD5181"/>
<path d="M15.5 10.55H1.5C0.9 10.55 0.5 10.15 0.5 9.55005C0.5 8.95005 0.9 8.55005 1.5 8.55005H15.5C16.1 8.55005 16.5 8.95005 16.5 9.55005C16.5 10.15 16.1 10.55 15.5 10.55Z" fill="#FD5181"/>
<path fill-rule="evenodd" clip-rule="evenodd" d="M9.5 0.550049H7.5C4.2 0.550049 1.5 3.25005 1.5 6.55005H15.5C15.5 3.25005 12.8 0.550049 9.5 0.550049ZM6.5 4.55005C5.9 4.55005 5.5 4.15005 5.5 3.55005C5.5 2.95005 5.9 2.55005 6.5 2.55005C7.1 2.55005 7.5 2.95005 7.5 3.55005C7.5 4.15005 7.1 4.55005 6.5 4.55005ZM10.5 4.55005C10.5 5.15005 10.9 5.55005 11.5 5.55005C12.1 5.55005 12.5 5.15005 12.5 4.55005C12.5 3.95005 12.1 3.55005 11.5 3.55005C10.9 3.55005 10.5 3.95005 10.5 4.55005Z" fill="#FD5181"/>
</svg>
