<svg width="15" height="11" viewBox="0 0 15 11" fill="none" xmlns="http://www.w3.org/2000/svg">
<path d="M10.111 0C9.999 0 9.676 0.147 9.676 0.147L6.354 1.827C5.911 2.002 5.736 2.708 6.002 3.061L6.972 4.469L3.002 6.498L5 7.998L7.502 6.498L10.002 7.998L11.004 6.996L8.004 2.996L10.561 1.466C11.089 1.2 11.004 0.762 11.004 0.496C11 0.286 10.644 0 10.111 0ZM12.252 3C12.0221 2.9998 11.7945 3.04489 11.582 3.13267C11.3695 3.22046 11.1765 3.34924 11.0138 3.51165C10.8511 3.67406 10.722 3.86692 10.6338 4.07923C10.5457 4.29153 10.5002 4.51912 10.5 4.749C10.4998 4.97888 10.5449 5.20655 10.6327 5.419C10.7205 5.63146 10.8492 5.82454 11.0116 5.98723C11.1741 6.14992 11.3669 6.27902 11.5792 6.36718C11.7915 6.45533 12.0191 6.5008 12.249 6.501C12.7133 6.5014 13.1587 6.31735 13.4872 5.98935C13.8158 5.66135 14.0006 5.21626 14.001 4.752C14.0014 4.28774 13.8174 3.84233 13.4894 3.51377C13.1614 3.18521 12.7163 3.0004 12.252 3ZM2.5 8L0 9.5V11L2.5 9.5L5 11L7.502 9.5L10.002 11L12 9.5L15 11V9.5L12 8L10.002 9.5L7.502 8L5 9.5L2.5 8Z" fill="black"/>
</svg>
