<svg width="16" height="16" viewBox="0 0 16 16" fill="none" xmlns="http://www.w3.org/2000/svg">
<path d="M6.4 5.49499L3.8 8.12125C4.048 8.21821 4.248 8.33943 4.416 8.4364C4.712 8.62225 4.888 8.7273 5.336 8.7273C5.784 8.7273 5.96 8.62225 6.256 8.4364C6.624 8.21821 7.12 7.91923 8.008 7.91923C8.896 7.91923 9.392 8.21821 9.752 8.4364C10.048 8.61417 10.232 8.7273 10.672 8.7273C11.112 8.7273 11.296 8.62225 11.592 8.4364C11.688 8.37983 11.8 8.31518 11.92 8.25054L6.784 3.07076C5.544 1.81824 4.4 1.44652 2.4 1.4546V3.4748C3.856 3.46672 4.712 3.78995 5.6 4.68691L6.4 5.49499ZM2.68 11.5556C3.12 11.5556 3.304 11.6687 3.6 11.8465C3.96 12.0647 4.456 12.3637 5.344 12.3637C6.232 12.3637 6.728 12.0647 7.088 11.8465C7.384 11.6606 7.56 11.5556 8.008 11.5556C8.448 11.5556 8.632 11.6687 8.928 11.8465C9.288 12.0647 9.784 12.3637 10.672 12.3637C11.56 12.3637 12.056 12.0647 12.416 11.8465C12.712 11.6606 12.888 11.5556 13.336 11.5556C13.776 11.5556 13.96 11.6687 14.256 11.8465C14.616 12.0647 15.104 12.3556 15.984 12.3637V10.7475C15.544 10.7475 15.36 10.6344 15.064 10.4566C14.704 10.2384 14.208 9.93942 13.32 9.93942C12.432 9.93942 11.936 10.2384 11.576 10.4566C11.28 10.6424 11.096 10.7475 10.656 10.7475C10.216 10.7475 10.032 10.6344 9.736 10.4566C9.376 10.2384 8.88 9.93942 7.992 9.93942C7.104 9.93942 6.608 10.2384 6.248 10.4566C5.952 10.6424 5.776 10.7475 5.328 10.7475C4.888 10.7475 4.704 10.6344 4.408 10.4566C4.048 10.2384 3.552 9.93942 2.664 9.93942C1.776 9.93942 1.28 10.2384 0.92 10.4566C0.624 10.6424 0.448 10.7475 0 10.7475V12.3637C0.888 12.3637 1.384 12.0647 1.76 11.8465C2.056 11.6606 2.24 11.5556 2.68 11.5556ZM13.336 13.5758C12.448 13.5758 11.952 13.8748 11.592 14.0929C11.296 14.2788 11.112 14.3838 10.672 14.3838C10.232 14.3838 10.048 14.2707 9.752 14.0929C9.392 13.8748 8.896 13.5758 8.008 13.5758C7.12 13.5758 6.624 13.8748 6.256 14.0929C5.96 14.2788 5.784 14.3838 5.336 14.3838C4.888 14.3838 4.712 14.2788 4.416 14.0929C4.056 13.8748 3.56 13.5758 2.672 13.5758C1.784 13.5758 1.288 13.8748 0.92 14.0929C0.624 14.2788 0.448 14.3838 0 14.3838V16C0.888 16 1.384 15.701 1.752 15.4828C2.048 15.297 2.232 15.1919 2.672 15.1919C3.112 15.1919 3.296 15.297 3.592 15.4828C3.952 15.701 4.448 16 5.336 16C6.224 16 6.72 15.701 7.088 15.4828C7.384 15.297 7.56 15.1919 8.008 15.1919C8.448 15.1919 8.632 15.3051 8.928 15.4828C9.288 15.701 9.784 16 10.672 16C11.56 16 12.048 15.701 12.416 15.4828C12.712 15.297 12.888 15.1919 13.336 15.1919C13.776 15.1919 13.96 15.3051 14.256 15.4828C14.616 15.701 15.112 16 16 16V14.3838C15.552 14.3838 15.376 14.2788 15.08 14.0929C14.72 13.8748 14.224 13.5758 13.336 13.5758Z" fill="#8B8D98"/>
<path d="M12.8 4.84847C14.3906 4.84847 15.68 3.7631 15.68 2.42423C15.68 1.08537 14.3906 0 12.8 0C11.2094 0 9.92 1.08537 9.92 2.42423C9.92 3.7631 11.2094 4.84847 12.8 4.84847Z" fill="#8B8D98"/>
</svg>
