<svg width="16" height="16" viewBox="0 0 16 16" fill="none" xmlns="http://www.w3.org/2000/svg">
<path d="M8 4.02516C8.98184 4.02516 9.77778 3.12409 9.77778 2.01258C9.77778 0.901062 8.98184 0 8 0C7.01816 0 6.22222 0.901062 6.22222 2.01258C6.22222 3.12409 7.01816 4.02516 8 4.02516Z" fill="#FFF7F6"/>
<path d="M16 11.9748V9.96227C14.0089 9.96227 12.3022 8.99623 11.0222 7.26541L9.83111 5.65535C9.49333 5.19246 8.99556 4.93082 8.47111 4.93082H7.53778C7.01333 4.93082 6.51556 5.19246 6.17778 5.65535L4.98667 7.26541C3.69778 8.99623 1.99111 9.96227 0 9.96227V11.9748C2.46222 11.9748 4.61333 10.7975 6.22222 8.7044V10.9686L2.77333 12.5283C2.17778 12.8 1.77778 13.4641 1.77778 14.1987C1.77778 15.195 2.48889 16 3.36889 16H5.33333V15.4969C5.33333 14.1082 6.32889 12.9811 7.55556 12.9811H10.2222C10.4711 12.9811 10.6667 13.2025 10.6667 13.4843C10.6667 13.766 10.4711 13.9874 10.2222 13.9874H7.55556C6.81778 13.9874 6.22222 14.6616 6.22222 15.4969V16H12.6311C13.5111 16 14.2222 15.195 14.2222 14.1987C14.2222 13.4641 13.8222 12.8 13.2267 12.5283L9.77778 10.9686V8.7044C11.3867 10.7975 13.5378 11.9748 16 11.9748Z" fill="#FFF7F6"/>
</svg>
