<svg width="20" height="24" viewBox="0 0 20 24" fill="none" xmlns="http://www.w3.org/2000/svg">
<path d="M0.889893 3C0.889893 3.66304 1.15328 4.29893 1.62213 4.76777C2.09097 5.23661 2.72685 5.5 3.38989 5.5C4.05293 5.5 4.68882 5.23661 5.15766 4.76777C5.6265 4.29893 5.88989 3.66304 5.88989 3C5.88989 2.33696 5.6265 1.70107 5.15766 1.23223C4.68882 0.763392 4.05293 0.5 3.38989 0.5C2.72685 0.5 2.09097 0.763392 1.62213 1.23223C1.15328 1.70107 0.889893 2.33696 0.889893 3ZM9.32989 9.61C9.1014 9.28456 9.01148 8.88171 9.07989 8.49C9.11171 8.28934 9.18395 8.09723 9.29225 7.92533C9.40055 7.75344 9.54263 7.60533 9.70989 7.49L12.8399 5.32C13.1845 5.09678 13.5895 4.98506 13.9999 5H16.9099C17.3077 5 17.6892 4.84196 17.9706 4.56066C18.2519 4.27936 18.4099 3.89782 18.4099 3.5C18.4099 3.10218 18.2519 2.72064 17.9706 2.43934C17.6892 2.15804 17.3077 2 16.9099 2H13.6699C12.8553 1.99899 12.0599 2.2467 11.3899 2.71L7.99989 5.06C7.02092 5.74079 6.35139 6.78156 6.13775 7.95469C5.92411 9.12782 6.18376 10.3378 6.85989 11.32L7.93989 12.87C7.97513 12.9242 8.02096 12.9707 8.07463 13.0068C8.12829 13.0429 8.18869 13.0677 8.2522 13.0798C8.31571 13.092 8.38101 13.0912 8.4442 13.0775C8.50738 13.0637 8.56714 13.0374 8.61989 13L10.2899 11.9C10.4002 11.8215 10.4755 11.7031 10.4999 11.57C10.5144 11.5046 10.5148 11.4369 10.501 11.3714C10.4872 11.3058 10.4595 11.244 10.4199 11.19L9.32989 9.61Z" fill="black"/>
<path d="M18.5199 7L17.7699 5.87C17.5498 5.53848 17.207 5.30798 16.8169 5.22922C16.4268 5.15045 16.0214 5.22987 15.6899 5.45C15.3584 5.67013 15.1279 6.01294 15.0491 6.40302C15.0101 6.59616 15.0095 6.7951 15.0474 6.98847C15.0853 7.18183 15.1609 7.36585 15.2699 7.53L15.9999 8.67C16.0748 8.76287 16.1106 8.88119 16.0999 9C16.0893 9.06509 16.0651 9.12721 16.0289 9.18235C15.9928 9.23748 15.9454 9.28438 15.8899 9.32L9.20989 13.78C9.09799 13.8543 9.01915 13.9689 8.98989 14.1C8.97038 14.2322 8.99875 14.3669 9.06989 14.48L9.38989 14.93V21.93C9.38989 22.3278 9.54793 22.7094 9.82923 22.9907C10.1105 23.272 10.4921 23.43 10.8899 23.43C11.2877 23.43 11.6692 23.272 11.9506 22.9907C12.2319 22.7094 12.3899 22.3278 12.3899 21.93V15.3L17.4499 11.93C18.0799 11.5309 18.5721 10.948 18.8599 10.26C19.0745 9.73031 19.1557 9.15602 19.0964 8.5876C19.0371 8.01918 18.8392 7.47402 18.5199 7Z" fill="black"/>
</svg>
