<svg width="110" height="25" viewBox="0 0 110 25" fill="none" xmlns="http://www.w3.org/2000/svg">
<path d="M4.27818 18.553C3.14682 18.0457 2.32974 17.2848 1.70121 16.3336C1.07267 15.3825 0.75841 14.3045 0.695557 13.0363H3.64965C3.7125 14.1143 4.21533 15.002 4.96956 15.6995C5.7238 16.397 6.85516 16.7141 8.11222 16.7141C9.24357 16.7141 10.1235 16.4605 10.8149 16.0166C11.5063 15.5093 11.8834 14.8752 11.8834 13.9875C11.8834 13.3534 11.6948 12.8461 11.3177 12.4657C10.9406 12.0852 10.4378 11.8316 9.80925 11.6413C9.18072 11.4511 8.23793 11.2609 7.04372 11.0072H6.91801C5.78665 10.817 4.781 10.5634 3.96391 10.1829C3.14682 9.80245 2.45544 9.29517 1.88976 8.59767C1.38694 7.90016 1.13553 6.94902 1.13553 5.80765C1.13553 4.72969 1.38694 3.77854 1.95262 2.95422C2.5183 2.12989 3.27253 1.4958 4.27818 0.98852C5.28383 0.544653 6.41519 0.291016 7.67225 0.291016C8.99216 0.291016 10.1864 0.544654 11.192 1.05193C12.2605 1.55921 13.0776 2.1933 13.6433 3.08104C14.2718 3.96877 14.5861 4.98332 14.5861 6.06128H11.632C11.5063 5.11014 11.0663 4.34923 10.3749 3.77854C9.68354 3.20786 8.74075 2.89081 7.67225 2.89081C6.60374 2.89081 5.7238 3.14445 5.09527 3.58831C4.46674 4.03218 4.15248 4.72968 4.15248 5.55401C4.15248 6.1881 4.34103 6.63197 4.71815 7.01243C5.09527 7.32948 5.59809 7.64653 6.22662 7.83675C6.85516 8.02698 7.7351 8.21721 8.92931 8.47085C10.1235 8.66108 11.1292 8.97813 12.0091 9.29517C12.8891 9.61222 13.5804 10.1829 14.1461 10.8804C14.7118 11.5779 14.9632 12.5291 14.9632 13.6704C14.9632 14.7484 14.6489 15.6995 14.0833 16.5873C13.5176 17.475 12.7005 18.1091 11.632 18.6164C10.5635 19.1237 9.43213 19.3139 8.11222 19.3139C6.6666 19.3773 5.34668 19.1237 4.27818 18.553Z" fill="#E60000"/>
<path d="M27.8481 6.2515C28.7909 6.82219 29.5452 7.5831 30.1108 8.66106C30.6765 9.73903 30.9279 10.9438 30.9279 12.4022C30.9279 13.7972 30.6765 15.002 30.1108 16.0166C29.5452 17.0945 28.7909 17.9189 27.8481 18.4895C26.9053 19.0602 25.774 19.3773 24.5798 19.3773C23.3856 19.3773 22.3799 19.1236 21.5628 18.6164C20.7457 18.1091 20.1801 17.4116 19.7401 16.5873L20.1172 15.9532V24.5769H17.2888V5.6174H19.7401L20.3058 8.97811L19.6772 8.34401C20.1801 7.51969 20.8086 6.82219 21.5628 6.2515C22.3799 5.74422 23.3227 5.49058 24.5169 5.49058C25.774 5.42717 26.8425 5.74422 27.8481 6.2515ZM22.0028 8.40742C21.3743 8.78788 20.9343 9.29516 20.62 9.99266C20.3058 10.6902 20.1172 11.4511 20.1172 12.3388C20.1172 13.2266 20.3058 14.0509 20.62 14.7484C20.9343 15.4459 21.4371 15.9532 22.0028 16.397C22.6313 16.7775 23.2599 16.9677 24.0769 16.9677C24.8312 16.9677 25.5226 16.7775 26.1511 16.397C26.7796 16.0166 27.2196 15.4459 27.5339 14.8118C27.8481 14.1143 28.0367 13.3534 28.0367 12.4656C28.0367 11.5779 27.8481 10.817 27.5339 10.1195C27.2196 9.42198 26.7796 8.9147 26.1511 8.53424C25.5226 8.15379 24.8312 7.96356 24.0769 7.96356C23.2599 7.83674 22.5685 8.02697 22.0028 8.40742Z" fill="#E60000"/>
<path d="M36.019 18.4896C34.9505 17.9189 34.1334 17.0946 33.5677 16.0166C33.002 14.9387 32.6877 13.7339 32.6877 12.4023C32.6877 11.0073 33.002 9.80251 33.5677 8.72454C34.1334 7.64658 34.9505 6.88567 36.019 6.31498C37.0875 5.74429 38.2817 5.42725 39.6016 5.42725C40.9844 5.42725 42.1786 5.74429 43.1842 6.31498C44.2527 6.88567 45.0698 7.70999 45.6355 8.72454C46.2012 9.80251 46.5154 11.0073 46.5154 12.4023C46.5154 13.7973 46.2012 15.0021 45.6355 16.0801C45.0698 17.158 44.2527 17.9189 43.1842 18.553C42.1157 19.1237 40.9215 19.4408 39.6016 19.4408C38.2188 19.3773 37.0246 19.0603 36.019 18.4896ZM41.6757 16.3337C42.3043 15.9532 42.7442 15.446 43.0585 14.7485C43.3728 14.0509 43.5613 13.29 43.5613 12.4023C43.5613 11.5146 43.3728 10.7537 43.0585 10.0561C42.7442 9.35864 42.3043 8.85136 41.6757 8.47091C41.0472 8.09045 40.3558 7.90022 39.6016 7.90022C38.8473 7.90022 38.0931 8.09045 37.5274 8.47091C36.8989 8.85136 36.4589 9.35864 36.1447 10.0561C35.8304 10.7537 35.6418 11.5146 35.6418 12.4023C35.6418 13.29 35.8304 14.0509 36.1447 14.7485C36.4589 15.446 36.9618 15.9532 37.5274 16.3337C38.156 16.7141 38.8473 16.9044 39.6016 16.9044C40.3558 16.9044 41.1101 16.7141 41.6757 16.3337Z" fill="#E60000"/>
<path d="M51.2923 5.61743L51.7951 8.97814L51.2295 8.34404C51.6066 7.51972 52.1723 6.82221 52.8008 6.37834C53.4293 5.87107 54.3721 5.68084 55.5663 5.68084H56.1949V8.34404H54.9378C53.7436 8.34404 52.9265 8.7245 52.3608 9.48541C51.858 10.2463 51.5437 11.2609 51.5437 12.4657V19.3139H48.7153V5.61743H51.2923Z" fill="#E60000"/>
<path d="M58.0803 1.74939H60.9087V5.55396H64.1771V8.02694H60.9087V15.1288C60.9087 15.6995 61.0344 16.08 61.223 16.2702C61.4115 16.5238 61.7887 16.5872 62.2915 16.5872H64.4913V19.1236H61.7258C60.4687 19.1236 59.5259 18.8066 58.9603 18.2359C58.3946 17.6652 58.0803 16.7141 58.0803 15.4459V1.74939Z" fill="#E60000"/>
<path d="M69.2054 18.553C68.0741 18.0457 67.257 17.2848 66.6284 16.3336C65.9999 15.3825 65.6857 14.3045 65.6228 13.0363H68.5769C68.6398 14.1143 69.1426 15.002 69.8968 15.6995C70.651 16.397 71.7824 16.7141 73.0395 16.7141C74.1708 16.7141 75.0508 16.4605 75.7421 16.0166C76.4335 15.5093 76.8106 14.8752 76.8106 13.9875C76.8106 13.3534 76.6221 12.8461 76.245 12.4657C75.8679 12.0852 75.365 11.8316 74.7365 11.6413C74.108 11.4511 73.1652 11.2609 71.971 11.0072H71.8453C70.7139 10.817 69.7083 10.5634 68.8912 10.1829C68.0741 9.80245 67.3827 9.29517 66.817 8.59767C66.3142 7.90016 66.0628 6.94902 66.0628 5.80765C66.0628 4.72969 66.3142 3.77854 66.8799 2.95422C67.4455 2.12989 68.1998 1.4958 69.2054 0.98852C70.2111 0.544653 71.3424 0.291016 72.5995 0.291016C73.9194 0.291016 75.1136 0.544654 76.1193 1.05193C77.1878 1.55921 78.0049 2.1933 78.5705 3.08104C79.1991 3.96877 79.5133 4.98332 79.5133 6.06128H76.5592C76.4335 5.11014 75.9936 4.34923 75.3022 3.77854C74.6108 3.20786 73.668 2.89081 72.5995 2.89081C71.531 2.89081 70.6511 3.14445 70.0225 3.58831C69.394 4.03218 69.0797 4.72968 69.0797 5.55401C69.0797 6.1881 69.2683 6.63197 69.6454 7.01243C70.0225 7.32948 70.5253 7.64653 71.1539 7.83675C71.7824 8.02698 72.6623 8.21721 73.8566 8.47085C75.0508 8.66108 76.0564 8.97813 76.9364 9.29517C77.8163 9.61222 78.5077 10.1829 79.0734 10.8804C79.639 11.5779 79.8905 12.5291 79.8905 13.6704C79.8905 14.7484 79.5762 15.6995 79.0105 16.5873C78.4448 17.475 77.6277 18.1091 76.5592 18.6164C75.4907 19.1237 74.3594 19.3139 73.0395 19.3139C71.5938 19.3773 70.3368 19.1237 69.2054 18.553Z" fill="#E60000"/>
<path d="M85.0444 18.4896C83.9759 17.9189 83.1588 17.0946 82.5931 16.0801C82.0274 15.0021 81.7131 13.7973 81.7131 12.4023C81.7131 11.0073 81.9645 9.7391 82.5302 8.72454C83.0959 7.70999 83.8501 6.88567 84.8558 6.31498C85.8614 5.74429 86.9928 5.42725 88.3127 5.42725C89.6326 5.42725 90.764 5.68088 91.7696 6.18816C92.7753 6.69544 93.5295 7.45635 94.0952 8.47091C94.6609 9.48546 94.9751 10.6268 94.9751 11.895C94.9751 12.0853 94.9751 12.2121 94.9751 12.4023C94.9751 12.5925 94.9752 12.7828 94.9123 12.973H84.7301C84.7301 13.0364 84.7301 13.0364 84.7301 13.0364V13.0998C84.7929 13.8607 84.9186 14.5582 85.2329 15.1289C85.5472 15.6996 85.9871 16.1435 86.5528 16.4605C87.1185 16.7776 87.747 16.9678 88.5013 16.9678C89.3812 16.9678 90.1355 16.7776 90.7011 16.3337C91.3297 15.8898 91.7068 15.3191 91.8953 14.5582H94.7866C94.598 15.446 94.2838 16.2703 93.7181 16.9678C93.1524 17.6653 92.461 18.236 91.6439 18.6798C90.764 19.0603 89.8212 19.3139 88.7527 19.3139C87.3071 19.3774 86.05 19.0603 85.0444 18.4896ZM86.7414 8.15386C86.2386 8.4075 85.7986 8.78795 85.4843 9.29523C85.1701 9.80251 84.9186 10.3098 84.8558 10.9439H92.0839C91.9582 9.92933 91.5811 9.105 90.9525 8.59772C90.324 8.02704 89.4441 7.7734 88.4384 7.7734C87.8099 7.70999 87.2442 7.83681 86.7414 8.15386Z" fill="#E60000"/>
<path d="M100.066 18.4896C98.9978 17.9189 98.1807 17.0946 97.615 16.0801C97.0494 15.0021 96.7351 13.7973 96.7351 12.4023C96.7351 11.0073 96.9865 9.7391 97.5522 8.72454C98.1179 7.70999 98.8721 6.88567 99.8778 6.31498C100.883 5.74429 102.015 5.42725 103.335 5.42725C104.655 5.42725 105.786 5.68088 106.792 6.18816C107.797 6.69544 108.551 7.45635 109.117 8.47091C109.683 9.48546 109.997 10.6268 109.997 11.895C109.997 12.0853 109.997 12.2121 109.997 12.4023C109.997 12.5925 109.997 12.7828 109.934 12.973H99.752C99.752 13.0364 99.752 13.0364 99.752 13.0364V13.0998C99.8149 13.8607 99.9406 14.5582 100.255 15.1289C100.569 15.6996 101.009 16.1435 101.575 16.4605C102.14 16.7776 102.769 16.9678 103.523 16.9678C104.403 16.9678 105.157 16.7776 105.723 16.3337C106.352 15.8898 106.729 15.3191 106.917 14.5582H109.809C109.62 15.446 109.306 16.2703 108.74 16.9678C108.174 17.6653 107.483 18.236 106.666 18.6798C105.786 19.0603 104.843 19.3139 103.775 19.3139C102.329 19.3774 101.135 19.0603 100.066 18.4896ZM101.763 8.15386C101.261 8.4075 100.821 8.78795 100.506 9.29523C100.192 9.80251 99.9406 10.3098 99.8778 10.9439H107.106C106.98 9.92933 106.603 9.105 105.975 8.59772C105.346 8.02704 104.466 7.7734 103.46 7.7734C102.832 7.70999 102.266 7.83681 101.763 8.15386Z" fill="#E60000"/>
</svg>
