<svg width="58" height="58" viewBox="0 0 58 58" fill="none" xmlns="http://www.w3.org/2000/svg">
<path d="M28.5952 57.7027C44.3896 57.7027 57.1934 44.7855 57.1934 28.8514C57.1934 12.9172 44.3896 0 28.5952 0C12.8009 0 -0.00292969 12.9172 -0.00292969 28.8514C-0.00292969 44.7855 12.8009 57.7027 28.5952 57.7027Z" fill="#FF0101"/>
<path d="M40.9145 16.423C43.5527 16.423 45.6914 14.2654 45.6914 11.6039C45.6914 8.94239 43.5527 6.78479 40.9145 6.78479C38.2764 6.78479 36.1377 8.94239 36.1377 11.6039C36.1377 14.2654 38.2764 16.423 40.9145 16.423Z" fill="white"/>
<mask id="mask0_176731_331" style="mask-type:alpha" maskUnits="userSpaceOnUse" x="-1" y="0" width="59" height="58">
<path d="M28.5952 57.7027C44.3896 57.7027 57.1934 44.7855 57.1934 28.8514C57.1934 12.9172 44.3896 0 28.5952 0C12.8009 0 -0.00292969 12.9172 -0.00292969 28.8514C-0.00292969 44.7855 12.8009 57.7027 28.5952 57.7027Z" fill="#FF0101"/>
</mask>
<g mask="url(#mask0_176731_331)">
<path d="M39.5318 29.4219C39.846 29.9292 40.4117 30.2463 41.0402 30.2463C41.3545 30.2463 41.6688 30.1829 41.983 29.9926L50.5939 24.793C51.4738 24.2858 51.7253 23.1444 51.2224 22.3201C50.7196 21.4323 49.5882 21.1787 48.7712 21.686L41.6059 25.9978L38.149 19.213C37.2062 18.2619 36.1377 17.3107 35.0692 16.4864L24.8241 11.2868C24.1327 10.9698 23.3785 11.0332 22.8128 11.5404L14.2648 19.3398C13.5106 20.0373 13.4477 21.1787 14.1391 21.8762C14.8305 22.6371 15.9618 22.7005 16.6532 22.003L24.3842 15.028L29.7267 17.7546L20.5501 32.0851L-0.379965 57.0685C-1.19706 58.0197 -1.1342 59.5415 -0.128553 60.3658C0.814244 61.1901 2.32272 61.1267 3.13981 60.1122L23.4414 36.4604L32.1779 38.4895L26.2069 47.9375C25.5784 49.0789 25.9555 50.4739 27.0868 51.108C28.0925 51.6787 29.4124 51.4251 30.1038 50.4105L37.7719 38.1725C38.2118 37.5384 38.2747 36.714 38.0233 36.0165C37.709 35.319 37.1433 34.8118 36.3891 34.6849L29.6638 33.0997L35.7606 23.4614L39.5318 29.4219Z" fill="white"/>
</g>
</svg>
